# xmcd CD database file
#
# Track frame offsets:
#	201
#	13585
#	29026
#	43434
#	58673
#	74111
#	91266
#	111526
#	127232
#	151842
#	171961
#
# Disc length: 2509 seconds
#
# Revision: 0
# Processed by: cddbd v1.4PL0 Copyright (c) Steve Scherf et al.
# Submitted via: CDex 1.50beta10
#
DISCID=a809cb0b
DTITLE=Luther "Houserocker" Johnson - American Roots: Blues
DYEAR=2002
DGENRE=Blues
TTITLE0=Rockin' Daddy
TTITLE1=Trouble Blues
TTITLE2=Big Money
TTITLE3=You Could Have Fooled Me
TTITLE4=Pretty Thing
TTITLE5=I'm Mr. Luck
TTITLE6=Little Car Blues
TTITLE7=She Wants to Sell My Monkey
TTITLE8=Cyin' and Thinkin'
TTITLE9=A Fool's Advice
TTITLE10=Drivin' Me Crazy
EXTD=YEAR: 2002
EXTT0=
EXTT1=
EXTT2=
EXTT3=
EXTT4=
EXTT5=
EXTT6=
EXTT7=
EXTT8=
EXTT9=
EXTT10=
PLAYORDER=
